<svg xmlns="http://www.w3.org/2000/svg" xmlns:xlink="http://www.w3.org/1999/xlink" width="12" height="12" viewBox="0 0 12 12">
    <defs>
        <path id="prefix__a" d="M0 0H12V12H0z"/>
    </defs>
    <g fill="none" fill-rule="evenodd">
        <mask id="prefix__b" fill="#fff">
            <use xlink:href="#prefix__a"/>
        </mask>
        <g fill="#919191" mask="url(#prefix__b)">
            <path d="M6.11.485c.146-.147.384-.147.53 0l5.25 5.25c.087.087.122.205.106.318l.004.072c0 .276-.168.5-.375.5h-.095l-4.89 4.89c-.125.126-.318.144-.462.054l-.068-.054c-.147-.146-.147-.384 0-.53l4.358-4.36H.375c-.184 0-.337-.177-.369-.41L0 6.125c0-.276.168-.5.375-.5H10.72l-4.61-4.61C5.984.89 5.966.697 6.056.553z"/>
        </g>
    </g>
</svg>
