<svg xmlns="http://www.w3.org/2000/svg" xmlns:xlink="http://www.w3.org/1999/xlink" width="30" height="30" viewBox="0 0 30 30">
    <defs>
        <path id="a" d="M0 0h12v12H0z"/>
    </defs>
    <g fill="none" fill-rule="evenodd">
        <circle cx="15" cy="15" r="15" fill="#F5F5F5" fill-rule="nonzero"/>
        <g transform="translate(9 9)">
            <mask id="b" fill="#fff">
                <use xlink:href="#a"/>
            </mask>
            <g fill="#484848" mask="url(#b)">
                <path d="M.002 6.043a.374.374 0 0 1 .108-.308L5.36.485a.375.375 0 1 1 .53.53L1.281 5.624l10.344.001c.181 0 .332.154.367.36l.008.09c0 .249-.168.45-.375.45L1.429 6.524l4.461 4.46a.375.375 0 0 1 .054.463l-.054.068a.375.375 0 0 1-.53 0L.367 6.525C.164 6.52 0 6.32 0 6.075z"/>
            </g>
        </g>
    </g>
</svg>
