<svg xmlns="http://www.w3.org/2000/svg" width="24" height="24" viewBox="0 0 24 24">
    <g fill="none" fill-rule="evenodd">
        <circle cx="12" cy="12" r="12" fill="#F5F5F5"/>
        <g>
            <path fill="#484848" d="M5.984 1.797c.133.133.145.342.036.489l-.036.042-3.298 3.296 7.533.001c.207 0 .375.224.375.5 0 .253-.141.462-.324.495l-.051.005H2.936l3.048 3.047c.133.133.145.342.036.489l-.036.042c-.133.133-.342.145-.488.036l-.042-.036-3.579-3.578h-.094c-.207 0-.375-.224-.375-.5l.004-.07c-.014-.096.01-.196.07-.278l.036-.042 3.938-3.938c.146-.146.383-.146.53 0z" transform="translate(6 6)"/>
        </g>
    </g>
</svg>
