<svg xmlns="http://www.w3.org/2000/svg" width="24" height="24" viewBox="0 0 24 24">
    <g fill="none" fill-rule="evenodd">
        <path fill="#484848" d="M21.75 13.5c1.243 0 2.25 1.007 2.25 2.25v6c0 1.243-1.007 2.25-2.25 2.25h-9c-1.243 0-2.25-1.007-2.25-2.25v-6c0-1.19.925-2.166 2.096-2.245l.154-.005h9zM4.68 7.649c2.735-.618 5.534.742 6.74 3.274.177.374.018.821-.356 1-.374.177-.821.018-1-.356C9.162 9.668 7.063 8.65 5.01 9.112c-2.052.463-3.509 2.285-3.51 4.388V15H3c.385 0 .708.292.746.675L4.43 22.5H7.57l.118-1.175c.04-.412.408-.712.82-.671.413.04.713.408.672.82l-.185 1.85c-.038.384-.36.676-.746.676h-4.5c-.385 0-.708-.292-.746-.675L2.32 16.5H.75c-.414 0-.75-.336-.75-.75V13.5c.001-2.805 1.944-5.234 4.68-5.851zm17.82 9.453l-4.058 2.534c-.677.423-1.524.454-2.225.09l-.16-.09L12 17.103v4.647c0 .38.282.693.648.743l.102.007h9c.414 0 .75-.336.75-.75v-4.648zM21.75 15h-9c-.249 0-.47.121-.606.307l-.053.084 4.761 2.973c.213.133.476.15.702.05l.094-.05 4.76-2.973c-.127-.233-.374-.391-.658-.391zM6 0c2.071 0 3.75 1.679 3.75 3.75C9.75 5.821 8.071 7.5 6 7.5c-2.071 0-3.75-1.679-3.75-3.75C2.25 1.679 3.929 0 6 0zm0 1.5c-1.243 0-2.25 1.007-2.25 2.25S4.757 6 6 6s2.25-1.007 2.25-2.25S7.243 1.5 6 1.5z"/>
    </g>
</svg>
