<svg xmlns="http://www.w3.org/2000/svg" xmlns:xlink="http://www.w3.org/1999/xlink" width="24" height="24" viewBox="0 0 24 24">
    <defs>
        <path id="a" d="M0 0h24v24H0z"/>
    </defs>
    <g fill="none" fill-rule="evenodd">
        <mask id="b" fill="#fff">
            <use xlink:href="#a"/>
        </mask>
        <g fill="#6c84fa" mask="url(#b)">
            <path d="M12 0a9 9 0 0 1 8.974 8.322A3.748 3.748 0 0 1 24 12v3a3.751 3.751 0 0 1-3 3.675v.075a3.75 3.75 0 0 1-3.75 3.75h-1.628A2.25 2.25 0 0 1 13.5 24H12a2.25 2.25 0 1 1 0-4.5h1.5c.98 0 1.814.626 2.122 1.5h1.628a2.25 2.25 0 0 0 2.25-2.25 1.5 1.5 0 0 1-1.5-1.5v-7.5a1.5 1.5 0 0 1 1.46-1.5 7.481 7.481 0 0 0-2.157-4.553A7.5 7.5 0 0 0 4.537 8.253L4.5 8.25A1.5 1.5 0 0 1 6 9.75v7.5a1.5 1.5 0 0 1-1.5 1.5h-.75A3.75 3.75 0 0 1 0 15v-3a3.751 3.751 0 0 1 3.026-3.68A8.999 8.999 0 0 1 12 0zm1.5 21H12a.75.75 0 1 0 0 1.5h1.5a.75.75 0 1 0 0-1.5zm.995-6.112a.75.75 0 0 1 1.01 1.108 5.204 5.204 0 0 1-7.01 0 .75.75 0 0 1 1.01-1.108 3.704 3.704 0 0 0 4.99 0zM4.5 9.75h-.75A2.25 2.25 0 0 0 1.5 12v3a2.25 2.25 0 0 0 2.25 2.25h.75v-7.5zm15.75 0h-.75v7.5h.75A2.25 2.25 0 0 0 22.5 15v-3a2.25 2.25 0 0 0-2.25-2.25zM9 9.235a.75.75 0 0 1 .75.75v1.312a.75.75 0 1 1-1.5 0V9.985a.75.75 0 0 1 .75-.75zm6 0a.75.75 0 0 1 .75.75v1.312a.75.75 0 1 1-1.5 0V9.985a.75.75 0 0 1 .75-.75z"/>
        </g>
    </g>
</svg>
