<svg xmlns="http://www.w3.org/2000/svg" width="24" height="24" viewBox="0 0 24 24">
    <g fill="none" fill-rule="evenodd">
        <path fill="#25d366" d="M23.99 12.002c-.036 4.428-2.471 8.483-6.349 10.57-3.771 2.03-8.32 1.883-11.948-.362l-3.986 1.273c-.586.187-1.134-.375-.938-.961l1.278-3.816C.705 16.733-.014 14.393-.01 11.992.025 5.342 5.399-.023 12 0c6.594-.01 11.955 5.35 11.99 12.002zm-22.5-.005c-.004 2.209.695 4.36 1.994 6.138.145.199.185.456.107.69l-.927 2.768 2.91-.93c.214-.069.449-.036.638.089 3.216 2.127 7.329 2.314 10.722.487 3.393-1.826 5.525-5.374 5.556-9.239-.03-5.81-4.72-10.5-10.489-10.49C6.222 1.49 1.521 6.184 1.49 11.998zm16.584 1.86c.1.05.175.09.248.135.165.103.297.222.396.393.041.072.07.148.086.225.217.652.116 1.37-.241 1.878-1.778 3.16-6.04 2.716-9.639-.158-3.667-2.929-4.997-7.054-2.28-9.938.832-.923 2.762-.768 3.245.36.047.11.104.247.186.45l.22.538.03.074c.205.5.4.938.387.922l.095.137c.211.386.211.854.014 1.215-.034.069-.065.124-.1.179-.038.06-.08.115-.126.167-.042.047-.256.244-.416.398.874 1.324 2.1 2.377 3.57 3.05.145-.187.336-.46.467-.669.399-.633.935-.695 1.563-.452.145.057.497.222 1.062.496l.027.013.97.474.236.113zm-.89 1.247l-.967-.472-.027-.014c-.379-.183-.675-.324-.836-.397-.205.307-.455.647-.615.827-.415.467-.955.534-1.499.26-1.85-.813-3.412-2.173-4.487-3.917-.329-.565-.19-1.036.184-1.443L9 9.88c.15-.152.326-.316.417-.4-.112-.209-.25-.532-.479-1.09l-.03-.074-.22-.54c-.08-.196-.134-.326-.177-.426-.021-.051-.615-.099-.767.07-1.98 2.1-.956 5.276 2.112 7.726 2.98 2.38 6.21 2.717 7.44.536.096-.138.135-.306.114-.47l-.226-.108z"/>
    </g>
</svg>
