<svg xmlns="http://www.w3.org/2000/svg" width="32" height="32" viewBox="0 0 32 32">
    <g fill="#1DA1F2" transform="translate(2 2)">
        <circle cx="14" cy="14" r="14" opacity=".16"/>
        <path d="M14.182 7c.846 0 1.532.696 1.532 1.556 0 .859-.686 1.555-1.532 1.555-.845 0-1.531-.696-1.531-1.555 0-.86.686-1.556 1.531-1.556zm2.297 14h-4.083c-.564 0-1.021-.464-1.021-1.037s.457-1.037 1.02-1.037h.766c.141 0 .256-.116.256-.26V14c0-.143-.115-.26-.256-.26h-.765c-.564 0-1.021-.464-1.021-1.036 0-.573.457-1.037 1.02-1.037h1.022c1.127 0 2.041.928 2.041 2.074v4.926c0 .143.115.259.256.259h.765c.564 0 1.021.464 1.021 1.037S17.043 21 16.48 21z"/>
    </g>
</svg>
